<svg
  width="66"
  height="22"
  viewBox="0 0 67 21"
  fill="none"
  xmlns="http://www.w3.org/2000/svg"
>
  <path
    fillRule="evenodd"
    clipRule="evenodd"
    d="M1.95586 1.54582C4.01941 2.94003 6.38218 4.53639 8.14176 5.76353L4.87467 7.63941L4.87467 4.77844C4.87467 4.65351 4.7394 4.57546 4.63125 4.63798L1.30548 6.5605C1.25532 6.58949 1.22444 6.64302 1.22444 6.70095V7.22979L1.22443 7.2315L1.22443 10.111V13.4563L1.22432 13.4562V14.3406L1.22436 14.3406L1.22434 14.3349L1.22443 14.3231L1.22443 18.1439C1.22443 18.2335 1.29707 18.3061 1.38666 18.3061H4.71243C4.80203 18.3061 4.87467 18.2335 4.87467 18.1439V11.7964L10.8519 8.34539C10.8729 8.3333 10.893 8.32014 10.9122 8.30601C11.0786 8.18471 11.1788 7.99028 11.1788 7.78161V7.50068L11.1787 7.50074L11.1787 4.64172C11.1787 4.4284 11.0739 4.22871 10.8983 4.10757L5.88629 0.64979C5.8592 0.631102 5.82707 0.621094 5.79416 0.621094L1.11712 0.621124C0.957185 0.621125 0.893022 0.82753 1.02552 0.917108L1.95586 1.54582ZM17.7988 16.3947C17.0224 16.3947 16.2732 15.8319 16.2732 14.6925C16.2732 13.5393 17.0224 13.0039 17.7988 13.0039C18.5888 13.0039 19.3243 13.5393 19.3243 14.6925C19.3243 15.8456 18.5888 16.3947 17.7988 16.3947ZM17.7988 11.082C15.7829 11.082 14.2029 12.5784 14.2029 14.6925C14.2029 16.8066 15.7829 18.3167 17.7988 18.3167C19.8283 18.3167 21.3946 16.8066 21.3946 14.6925C21.3946 12.5784 19.8283 11.082 17.7988 11.082ZM13.5172 11.2879C13.381 11.2467 13.1767 11.2193 12.9723 11.2193C12.4275 11.2193 11.5694 11.4389 11.2153 12.2077V11.2879H9.21303V18.1108H11.2834V15.1318C11.2834 13.7727 12.0325 13.2785 12.8634 13.2785C13.0677 13.2785 13.2856 13.2922 13.5172 13.3471V11.2879ZM25.6286 20.925C23.6808 20.925 22.4413 19.7169 22.2506 18.4951L24.0758 17.9735C24.212 18.6324 24.7568 19.1129 25.5332 19.1129C26.5684 19.1129 27.2086 18.605 27.2086 17.3694V17.0537C26.9634 17.4243 26.3777 17.8225 25.397 17.8225C23.5991 17.8225 22.2506 16.3947 22.2506 14.5003C22.2506 12.7019 23.5446 11.1644 25.397 11.1644C26.5003 11.1644 27.086 11.6586 27.2767 12.0155V11.2879H29.2517V17.2596C29.2517 19.2227 28.162 20.925 25.6286 20.925ZM24.321 14.5003C24.321 15.4338 24.9475 16.0104 25.7784 16.0104C26.6229 16.0104 27.2222 15.4338 27.2222 14.5003C27.2222 13.5668 26.5548 12.9902 25.7784 12.9902C25.002 12.9902 24.321 13.5668 24.321 14.5003ZM35.305 11.2879C35.1688 11.2467 34.9645 11.2193 34.7602 11.2193C34.2154 11.2193 33.3573 11.4389 33.0031 12.2077V11.2879H31.0009V18.1108H33.0712V15.1318C33.0712 13.7727 33.8204 13.2785 34.6512 13.2785C34.8555 13.2785 35.0735 13.2922 35.305 13.3471V11.2879ZM38.5482 18.3029C37.0636 18.3029 36.2055 17.3145 36.2055 16.23C36.2055 15.0219 37.0908 14.3355 38.2077 14.1708L39.8014 13.9237C40.1691 13.8688 40.2917 13.6903 40.2917 13.4569C40.2917 13.0588 39.9512 12.7156 39.2974 12.7156C38.5755 12.7156 38.1805 13.2098 38.1396 13.7178L36.3417 13.3471C36.4234 12.3724 37.3224 11.082 39.311 11.082C41.5039 11.082 42.3076 12.3175 42.3076 13.7178V17.0537C42.3076 17.5891 42.3757 18.0421 42.3893 18.1108H40.5232C40.5096 18.0558 40.4551 17.8087 40.4551 17.342C40.101 17.9186 39.4472 18.3029 38.5482 18.3029ZM38.2486 16.0927C38.2486 16.4497 38.4801 16.7929 39.0522 16.7929C39.6651 16.7929 40.2917 16.4908 40.2917 15.4338V15.1318L39.0113 15.3377C38.5755 15.4063 38.2486 15.6122 38.2486 16.0927ZM46.12 18.1108V14.1845C46.12 13.5668 46.515 13.0039 47.2369 13.0039C47.986 13.0039 48.3265 13.5119 48.3265 14.1571V18.1108H50.3696V14.1708C50.3696 13.5668 50.7646 13.0039 51.5002 13.0039C52.2357 13.0039 52.5762 13.5119 52.5762 14.1571V18.1108H54.5785V13.6903C54.5785 11.837 53.3526 11.082 52.0722 11.082C51.1597 11.082 50.5059 11.384 49.9747 12.1528C49.6341 11.4801 48.9395 11.082 47.9724 11.082C47.2369 11.082 46.3652 11.4664 46.0246 12.0704V11.2879H44.0496V18.1108H46.12ZM66.8069 16.3124V18.1108H61.127V16.2712L64.11 13.0726H61.2088V11.2879H66.7524V13.0039L63.6333 16.3124H66.8069ZM58.8277 18.0967H56.4473L57.1476 13.6238H56.4473V11.1309H59.5238V13.6238L58.8277 18.0967ZM56.4473 6.62699H59.5238V9.5765H56.4473V6.62699Z"
    fill="white"
  />
</svg>
